<svg xmlns="http://www.w3.org/2000/svg" viewBox="0 0 275.52 282.11"><defs><style>.a{fill:#fff;}</style></defs><path class="a" d="M69.49,264.64c-.76-1.75-1-3.87-3.06-6.45-3.46-4.29-7.46-4.53-13.52-6.9-13.92-5.44-19.79-14.84-16.44-29.6,3.75-16.52,8.71-32.76,12.94-49.18A58.65,58.65,0,0,0,51.58,159c.26-16.53-.08-33.07.22-49.6A96.09,96.09,0,0,1,54,90.6c2.87-13.17,12.64-20.31,27.89-21,4.86-.23,9.74-.08,14.58-.5,2.41-.21,4.75-1.31,7.61-2.15-2.41-4.47-5.56-5.23-9-5a52.59,52.59,0,0,1-24.78-3.78C57.5,53,45.59,62.62,44.33,77.41A18.66,18.66,0,0,1,41.61,86c-1.9,2.82-4.61,2.84-7.21-.14C26.27,76.48,17.92,67.32,9.71,58S-.31,38,4,26.76C8.59,15,17.19,6.88,30,4.58,43.49,2.17,56,11.34,56.17,23.3A14.18,14.18,0,0,1,45.85,37.46c-6.76,1.75-12.42-1.1-15.72-7.85a6.6,6.6,0,0,0-1.36-1.46c-4.17,6-3.83,9.15,1.31,13.61,6.8,5.89,20.4,6.61,27.74.25,5-4.32,8.6-10.28,12.67-15.62,1.88-2.46,3-5.7,5.23-7.65,1.44-1.25,4.65-1.54,6.51-.81,1.22.47,1.94,3.5,2,5.41.11,3.63-.62,7.27-.63,10.91,0,11.76,8.57,19,20.11,16.8,7.56-1.46,14.29.24,21,3.78,5.77,3.06,8.74,13.18,5.42,19.2-1.66,3-3.49,5.09-7.12,5.31-8.45.53-16.93,1-25.35,1.87-4.26.45-8.81,1-12.51,2.93-2.19,1.12-3.84,4.85-4.21,7.6-.53,4,3.71,4.49,6.19,4.68,6.51.5,13.24,1,19.62,0a195.56,195.56,0,0,1,61.7-.24c6.44,1,13.09.56,19.65.66,4.26.06,7-1.9,7.22-6.41.2-4.22-2.4-6.4-7.68-6.69-8.69-.46-17.42-.6-26.06-1.52-5.77-.62-10.28-4.09-13.59-8.92-5.93-8.67-1.63-19.81,8.5-21.92,4.52-.94,9.11-1.54,13.58-2.63,8.81-2.14,12.21-8.37,9.51-17-.87-2.77-1.91-5.48-2.68-8.28-1.8-6.62,1.54-10,8.44-9.2,5.6.67,9.22,3.54,12,8.28,4.68,7.91,9.73,15.59,14.59,23.38,6.44,10.31,28.05,11.47,36.68,5.55,5.6-3.85,8.57-9.21,10-15.48,1.07-4.71-1.52-8.86-5.37-9.88s-6.58.68-8.08,5.18c-4.26,12.78-14.87,15-24.23,5.17-8.78-9.27-10.17-18.36-3-26.62,3-3.42,7.75-5.52,12.37-6.8,5.12-.73,7-.91,10.66-.45a89,89,0,0,1,16.26,6.22c18.57,9.73,21.3,28.74,15.77,45.82A38.56,38.56,0,0,1,257.72,75.3c-4.61,3.11-8.73,6.92-13.18,10.28-5.78,4.36-11.93,2.33-13.93-4.84-1.55-5.58-4.88-8.88-9.87-11.79a123.87,123.87,0,0,1-18.5-13.82C197.48,51,196,50.6,190.18,53.42a70.39,70.39,0,0,1-14.27,5.11c-3.85.91-6.47,2.32-6.34,6.5.14,4.4,3.39,5.59,7,5.72,5.11.19,10.22,0,15.33.13a36.23,36.23,0,0,1,7.94.73c13.2,3.27,19.37,11.11,19.58,25.08.26,16.54,0,33.09.46,49.62.37,12.84.89,25.84,5.7,38a136.91,136.91,0,0,0,10.69,21.48c6,9.73,6,19.87,3.14,30.16-1.49,5.28-4.57,10.13-7.08,15.1-2.28,4.52-6.12,5.94-11,5.1-7-1.23-13.39-3.94-18.62-9-3-2.86-6-5.69-8.82-8.72-3-3.28-6.72-3.62-9.8-1.12-18.55,15-40.12,14.38-61.74,11.47-14.65-2-27.82-8-38.44-19A35.31,35.31,0,0,1,73.88,207a32.55,32.55,0,0,0-.6-5.78c-1.33-4.94-5-6.63-9.51-4.07-6.54,3.74-8.83,10-9.16,17.14-.32,6.87,1.56,13.53,8.32,15.46,12.17,3.48,20.68,12,30.55,18.84,12.58,8.72,27.3,12.06,42.41,13.14,16.42,1.18,32.34-.86,47.25-8.55,4.26-2.2,8.9-2.5,13.23.25,5.53,3.52,11,7.12,16.5,10.69a6.91,6.91,0,0,1,3.46,4.68,6.78,6.78,0,0,1-1.41,4.68c-4.27,6.17-18.4,6.32-18.4,6.32-14.2.14-21.33-.73-39.33-1-11.62-.18-25.39-1.64-54.43-2.65C92.57,275.82,73.44,273.71,69.49,264.64Zm70.37-118c-14.42.14-20.35,3.1-28.94,14.61-5.82,7.8-6.73,16.09-3.47,25.37,4.76,13.54,22.64,21.15,34.51,21.07,19.16-.12,30.63-12,29.47-31C170.25,157.3,158.81,146.41,139.86,146.59Zm84.44,75.23c-.52-18.15-15.3-27.67-31.2-19.57-6.45,3.29-12.45,7.52-18.43,11.66-16.95,11.73-35.06,15-54.55,7.53-6.54-2.5-12.67-6.1-19.24-8.5-2.21-.8-6.14-.37-7.65,1.14-2.29,2.29-.74,5.45,1.66,7.61a20.85,20.85,0,0,0,3.4,2.71c22.1,12.62,45.17,18.1,69.39,7,8.91-4.1,16.89-10.32,25-15.92,10.76-7.38,17.29-4.54,18.59,8.32.22,2.16.29,4.63,1.42,6.29s3.46,3.17,5.21,3.11,3.73-2,4.54-3.68C223.63,227.2,223.75,224.4,224.3,221.82Z"/><path class="a" d="M141.73,197.65c-10.63.48-21-7.31-21.43-16.14-.64-12.41,8.19-22.53,19.69-23.44,9.66-.77,18.95,7.62,19.69,22.29C160.18,190.46,153.16,197.13,141.73,197.65Z"/></svg>