<svg xmlns="http://www.w3.org/2000/svg" viewBox="0 0 275.52 282.11"><path d="M208,.17a59.68,59.68,0,0,1,10.8,4.13c12.33,6.46,14.14,19.09,10.47,30.43a25.58,25.58,0,0,1-10.13,13.78c-3.07,2.07-5.8,4.6-8.76,6.83-3.84,2.9-7.92,1.55-9.25-3.22-1-3.7-3.24-5.89-6.56-7.83a81.39,81.39,0,0,1-12.28-9.17c-3.16-2.76-4.16-3-8-1.14a46.39,46.39,0,0,1-9.48,3.39c-2.56.61-4.3,1.55-4.21,4.32.09,2.93,2.25,3.72,4.68,3.8,3.39.12,6.78,0,10.17.09a24.42,24.42,0,0,1,5.28.48c8.76,2.18,12.86,7.38,13,16.66.16,11,0,22,.3,33,.25,8.54.59,17.17,3.78,25.23a91.6,91.6,0,0,0,7.11,14.26c4,6.46,4,13.2,2.08,20-1,3.51-3,6.73-4.7,10-1.52,3-4.06,3.95-7.3,3.38a22.94,22.94,0,0,1-12.37-5.94c-2-1.9-4-3.77-5.85-5.79-2-2.17-4.47-2.4-6.51-.75-12.33,10-26.65,9.56-41,7.62a42.28,42.28,0,0,1-25.53-12.61A23.42,23.42,0,0,1,97,136a21.28,21.28,0,0,0-.4-3.84c-.89-3.28-3.36-4.4-6.32-2.71-4.34,2.49-5.86,6.62-6.08,11.39-.22,4.56,1,9,5.52,10.27,8.08,2.31,13.74,8,20.29,12.52,8.36,5.78,18.14,8,28.17,8.72,10.9.78,21.48-.57,31.38-5.68a8.45,8.45,0,0,1,8.79.17c3.67,2.33,7.31,4.73,11,7.09,2.5,1.63,3,3.9,1.36,6.22-4,5.48-7.78,11.14-12.34,16.09-5.32,5.77-9.69,5.51-15.42.2-.7-.66-1.44-1.29-2.14-2-2.12-2.06-4.16-2.24-6.16.18-.51.63-1.11,1.18-1.67,1.76-4.71,4.93-8.17,5.22-13.43,1.11l-1.93-1.45c-6.43-5-7.46-4.9-12.88,1.43-2.76,3.23-6.15,3.74-10,1.44-2.06-1.26-4-2.68-6.1-3.93-3.11-1.88-6.39-1.88-9,.65-7.85,7.74-14.11,16.49-14.66,28-.54,11.37,11.06,24,22.44,24.29,6.58.18,13.19-.42,19.79-.67.81,0,1.61-.12,2.42-.14,2.87-.08,5.16.9,5.92,3.87a4.82,4.82,0,0,1-3.36,6.15c-3.77,1.33-7.71,3.26-11.53,3.15-8-.22-16.2-.71-23.91-2.7-19.71-5.07-26-21.21-23.84-38.71,1-7.92,4.14-15.18,8.38-22,.85-1.37,1-3.18,1.47-4.79-2-.29-4-1.13-5.85-.76a12.29,12.29,0,0,0-9,7.48c-1.7,4-3.59,8.09-4.12,12.31-.87,7-1.71,14.27-.81,21.2,1.71,13.14,9,23.31,21,28.89A74.11,74.11,0,0,0,128,267.55c5.24-.87,10.34-2.13,14.39-6.22,10-10.07,2.56-19.19-6-22-2.81-.91-6-.73-9.08-.67-5.48.1-11,.73-16.42.71A16.76,16.76,0,0,1,95.49,228c-1.28-3.69-.09-7.15,1.59-10.21,1.76-3.22,4.31-6,6.52-9,2-2.73,4.72-3.11,7.76-2.07a10.51,10.51,0,0,1,2.69,1c3.93,2.79,7.29,2.07,10.78-1,3.77-3.35,8.07-4.63,12.81-1.6.93.6,2.12.82,3,1.44,4,2.73,8.11,2.66,12.21.28s7.63-1.49,11.28.9c10.7,7,16.75,17.19,20.6,29,.7,2.14,1.31,4.32,2.19,6.39,1.25,2.94,3.79,4.38,6,3.64,2.42-.83,3.08-3,1.93-6.49-3.13-9.49-6.08-19-12.44-27.07-2.51-3.18-2.46-6.52.12-9.73,5.35-6.67,10.76-13.29,16-20a29.19,29.19,0,0,0,3.7-6.06c1.64-3.68,4.52-6.08,8.3-5,5.78,1.7,8.7-1.56,11.75-5.27,1.7-2.07,2-6,6-5.11,2.58.54,5.7,5.8,6,9.33a11.1,11.1,0,0,1-3.25,9.23c-2.83,2.89-5.36,6.12-8.45,8.67-3.85,3.16-4.64,7.1-4.37,11.65.26,4.35.54,8.7.58,13.06,0,3.84-1.44,5.62-4.69,6.3s-5.29-1.26-6.38-3.94c-.69-1.7-.63-3.72-.85-5.61-.36-3-.28-6.14-1.13-9s-2.9-3.46-5.79-2.28c-4.91,2-7.06,6.7-4.65,11.48a174.91,174.91,0,0,0,9.63,16.75c2.86,4.39,5.76,4.79,10.33,2.35,4.85-2.59,7.7-1.26,8.5,4.11.92,6-.14,11.49-4.7,16-3.41,3.42-6.64,7.06-9.71,10.79-2.48,3-5.62,4.65-9.28,4.28a118.88,118.88,0,0,1-18.05-2.9c-5.15-1.34-7.73-5.7-8.45-10.81-1.62-11.45-8.16-19.73-16.69-26.84-5.4-4.5-11.87-5.55-18.57-5.52-5.8,0-11.62.28-17.42.71a18.92,18.92,0,0,0-6.88,1.74c-2.91,1.44-2.72,4.57.29,5.84a16.87,16.87,0,0,0,5.63,1c7.57.39,15.18.26,22.7,1.06,11.69,1.24,21.34,10.54,22.56,21.85.89,8.33-1.71,15.49-9.21,20.42-10.6,7-22.28,9.63-34.8,10.08a114.27,114.27,0,0,1-40.38-5.74,45,45,0,0,1-23.07-16.68c-4.26-6-5.45-13.32-6.76-20.49-2.9-16-1.83-31.43,4.52-46.51,2.71-6.46,2.19-7.1-3.55-11-4.93-3.38-10.13-6.7-11.14-13.25-.55-3.58-1.4-7.38,1.08-10.73,4.61-6.23,18.16-4.51,20,2.54,1.41,5.38,4.22,10.09,9.6,12a126.63,126.63,0,0,0,18.14,4.75c1.31.26,3.71-1.31,4.37-2.65.45-.92-.84-3.48-2-4.29a46,46,0,0,0-9-4.58c-9.25-3.62-13.15-9.86-10.92-19.66,2.49-11,5.78-21.76,8.59-32.67a38.4,38.4,0,0,0,1.44-9c.18-11,0-22,.15-32.94a64.51,64.51,0,0,1,1.45-12.46c1.91-8.75,8.4-13.48,18.52-14,3.23-.15,6.47-.05,9.68-.33A29.16,29.16,0,0,0,117.07,43a5.59,5.59,0,0,0-6-3.3A34.88,34.88,0,0,1,94.6,37.14c-8.45-3.45-16.36,3-17.2,12.78a12.43,12.43,0,0,1-1.81,5.68c-1.26,1.87-3.06,1.89-4.79-.1-5.39-6.21-10.94-12.28-16.39-18.45s-6.66-13.34-3.77-20.78c3-7.78,8.73-13.2,17.26-14.73C76.84-.06,85.14,6,85.26,14a9.41,9.41,0,0,1-6.85,9.4c-4.49,1.16-8.25-.73-10.44-5.22a4.48,4.48,0,0,0-.9-1c-2.78,3.95-2.55,6.07.87,9,4.51,3.91,13.54,4.38,18.42.16,3.31-2.87,5.71-6.82,8.42-10.37,1.25-1.64,2-3.79,3.47-5.08a5,5,0,0,1,4.32-.54c.81.31,1.29,2.32,1.33,3.59.07,2.41-.41,4.83-.42,7.25,0,7.81,5.7,12.63,13.36,11.15,5-1,9.49.16,13.92,2.52,3.83,2,5.8,8.75,3.6,12.75-1.11,2-2.32,3.38-4.73,3.53-5.62.35-11.24.65-16.84,1.24a23.79,23.79,0,0,0-8.31,1.94c-1.45.75-2.55,3.22-2.79,5-.35,2.62,2.46,3,4.11,3.11,4.33.33,8.79.68,13,0a130.1,130.1,0,0,1,41-.16c4.28.64,8.69.37,13.05.44,2.83,0,4.65-1.26,4.79-4.26.14-2.8-1.59-4.25-5.1-4.44-5.77-.31-11.56-.39-17.3-1-3.84-.41-6.83-2.71-9-5.93-3.94-5.75-1.08-13.15,5.65-14.55,3-.62,6-1,9-1.75,5.85-1.42,8.1-5.56,6.31-11.32-.57-1.84-1.27-3.64-1.78-5.5-1.2-4.4,1-6.66,5.61-6.11,3.71.44,6.12,2.35,8,5.5,3.11,5.25,6.46,10.35,9.69,15.53,4.27,6.85,18.63,7.61,24.36,3.68a16.16,16.16,0,0,0,6.64-10.28,5.35,5.35,0,0,0-3.56-6.56c-2.6-.69-4.37.45-5.37,3.44-2.83,8.49-9.88,10-16.09,3.43-5.84-6.16-6.76-12.19-2-17.68,2-2.27,5.15-3.66,8.22-4.51A22,22,0,0,1,208,.17ZM140.85,95.86c-9.58.09-13.52,2.06-19.22,9.7-3.87,5.18-4.47,10.69-2.31,16.86,3.16,9,15,14,22.92,14,12.73-.08,20.34-7.95,19.57-20.58C161,103,153.43,95.74,140.85,95.86Zm56.08,50c-.35-12.06-10.16-18.38-20.72-13A107.21,107.21,0,0,0,164,140.57c-11.26,7.79-23.29,9.94-36.23,5-4.35-1.66-8.42-4-12.78-5.64-1.47-.54-4.08-.24-5.08.76-1.53,1.52-.5,3.61,1.1,5.05a13.85,13.85,0,0,0,2.26,1.8c14.67,8.38,30,12,46.08,4.63,5.92-2.72,11.22-6.85,16.64-10.57,7.15-4.9,11.48-3,12.35,5.53.14,1.43.19,3.08.94,4.18a4.88,4.88,0,0,0,3.46,2.06c1.07,0,2.48-1.34,3-2.44C196.48,149.4,196.56,147.54,196.93,145.83Z"/><path d="M142.09,129.77c-7.06.32-13.93-4.85-14.24-10.71-.42-8.25,5.44-15,13.08-15.57,6.42-.51,12.59,5.05,13.08,14.8C154.34,125,149.68,129.43,142.09,129.77Z"/></svg>