<svg xmlns="http://www.w3.org/2000/svg" viewBox="0 0 275.52 282.11"><defs><style>.a{fill:#fff;}</style></defs><path class="a" d="M0,271.68c.25-.66.79-1.36.72-2-.43-3.48,1.29-5.77,3.64-8.11,4.14-4.12,7.87-8.64,11.87-12.91a12.25,12.25,0,0,0,3.15-8.54q.47-24.1.76-48.2c.12-10.59,0-21.18.19-31.77.11-5.57,1.93-10.56,7-13.62,4.25-2.55,5.58-6.36,5.46-11.05-.21-8-.24-16-.49-23.92-.2-6.2,3.32-10.18,9.56-10.44,4.6-.18,9.21-.35,13.81-.44,2.89-.06,5.19-1.1,6.25-3.85a6.73,6.73,0,0,0-1.72-7.57c-2.11-2-4.76-3.1-7.52-1.74a40.88,40.88,0,0,0-8.1,5.15c-2.32,2-4.66,3.26-7.7,3.16-5.7-.19-11.4-.32-17.09-.71-.93-.06-2.49-1.28-2.49-2A5.3,5.3,0,0,1,19,89.82a5.56,5.56,0,0,1,3.1-1c2-.2,4-.16,6-.22,1.24,0,2.5,0,3.73-.07,2.79-.23,5-1.92,4.89-3.71s-2.38-3.7-4.88-3.84-5,.21-7.46-.23A13.94,13.94,0,0,1,18,78.22c-2.67-2.22-1.94-5.56,1.3-6.8a20.58,20.58,0,0,1,5.8-.82c2.35-.18,4.8.16,7-.41a5.28,5.28,0,0,0,3.14-3.13c.53-1.71-.91-3.16-2.62-3.5-3.15-.6-6.36-.8-9.52-1.35-1.79-.3-3.88-.36-5.24-1.53s-1.23-2-.62-4c.39-1.24,2.82-2.54,4.28-2.58,6.57-.21,13.16-.24,19.7.2,4.55.31,5.7,4.24,6.61,8,.29,1.2.4,2.44.64,3.66,1.06,5.33,1.07,5.28,6.6,5.37a61.15,61.15,0,0,1,9.68.47c7.65,1.32,11.62,5.65,11.76,13.08.09,4.73.14,9.47-.07,14.19-.2,4.3-2.46,7.82-5.26,10.89-2.41,2.66-5.78,2.43-9.08,2.3a55.06,55.06,0,0,0-8.52.17,5.18,5.18,0,0,0-5,5.22c-.14,7.21-.24,14.44.2,21.63.28,4.62,1.21,5.07,5.71,6a27.7,27.7,0,0,1,3.6,1c4.53,1.61,6.91,4.78,6.93,9.55.06,16.45,0,32.91.07,49.36,0,4.48-.11,9,.09,13.46a18.43,18.43,0,0,0,1.31,6.13c1,2.48,3.32,3.07,5.92,2.9s2.88-2,3.41-3.8c1.82-6.12,4.55-7.24,10.49-4.5,8.89,4.11,18.41,6,28,7.57a83.61,83.61,0,0,0,9.65.62c3,.14,4.66,1.9,4.81,5,.32,6.67-6.19,13.35-13.35,13.45a19.85,19.85,0,0,1-12.89-4.18c-1.51-1.18-3.79-2.54-2.62-4.73s3.48-1.26,5.42-.66c2.84.88,5.66,1.92,8.56,2.53s4.18-.17,5.58-3.59c-1.79-.46-3.48-1-5.2-1.32-4.36-.9-8.72-2-13.13-2.55-5-.66-8.06,3.41-6.42,8.26a13.39,13.39,0,0,0,7.47,8.41,32.37,32.37,0,0,0,17.93,2.44,15.64,15.64,0,0,0,12.67-10.4,37.35,37.35,0,0,0,2.23-7.5c.46-2.83,2-4.19,4.46-5.39,5.12-2.54,10.16-5.25,15.06-8.2a53.56,53.56,0,0,0,7.3-5.76c3-2.61,6.1-3.76,9.9-2,1,.46,2.1.79,3.13,1.23a6.44,6.44,0,0,0,6.05-.25c3.88-2.13,7.65-1.73,11.12,1.13a4.66,4.66,0,0,0,2.17,1.26c4.21.41,6.6,3.12,8.6,6.43a14.66,14.66,0,0,0,1.4,2.2,3.48,3.48,0,0,0,6-1,11.24,11.24,0,0,0,.58-4c.05-12.34-.07-24.68.08-37,.09-7.46.53-14.93.89-22.39.18-4,2-7.12,5.82-8.28,7-2.11,9-6.77,8.38-13.66-.49-5.56-.06-11.2-.08-16.81,0-4.16-.48-4.6-4.75-4.89-3-.21-6-.3-8.95-.66a26.75,26.75,0,0,1-5.79-1.34,7.93,7.93,0,0,1-5.55-6.33,57.1,57.1,0,0,1,.18-24.07,7.81,7.81,0,0,1,3-4.32c4.25-3,9.19-3.53,14.28-3.27,2,.1,4,.05,6,0,2.63-.07,3.73-1.66,3.9-4.09.16-2.23.12-4.49.45-6.7.45-3,2.27-5.22,5.38-5.33,8.08-.28,16.17-.41,24.25-.23,3.11.07,5.06,2,4.87,3.73-.32,2.83-2.57,3.49-4.85,3.78-3.94.49-7.92.69-11.85,1.23-2.21.3-3.95,1.42-4.39,3.93-.55,3.08.71,4.73,3.86,4.92,4.09.23,8.18.46,12.27.74a5.06,5.06,0,0,1,2.1.57c1.37.8,3.33,1.61,2.65,3.51a4.84,4.84,0,0,1-3.17,2.61c-4.25.76-8.57,1.15-12.88,1.57-2.94.28-4.07,1.06-4.08,3.27,0,2,.72,3.5,3,3.43a22.07,22.07,0,0,0,4.33-.69,10.6,10.6,0,0,1,9.5,2c1.92,1.54,1.82,3.37-.38,4.39a14.32,14.32,0,0,1-5.69,1.63,139.87,139.87,0,0,1-16.38-.7c-4.18-.48-6.9-3.07-7.56-7.56-.46-3.15-1.52-4.09-4.7-4.11a64,64,0,0,0-7.42.64,3.45,3.45,0,0,0-1.37.54c-2.08,1.27-3.13,5.37-2.33,8.9.77,3.37,2.69,5.45,5.66,5.53,4.23.12,8.47-.15,12.7-.1,6.86.07,10.56,3.78,10.58,10.65,0,9.1,0,18.19-.14,27.28-.05,5.35.48,6.63,5.45,8.45,6.31,2.31,8.64,7.1,9.08,13.23.23,3.36.22,6.73.21,10.09,0,20.07-.24,40.14,0,60.2.1,7.94,2.4,15.41,8.1,21.44,2.14,2.26,4.07,4.71,6.17,7,3.76,4.1,3.64,8.81,2.14,13.66-.81,2.66-4.08,4.21-7,3.63-2.14-.43-3.48-2.56-3.43-5.47a10.27,10.27,0,0,0-6.53-9.46c-1.66-.6-2.71-.08-3.2,1.48-.36,1.18-.4,2.45-.68,3.66a29.92,29.92,0,0,1-1.54,5.7c-1.75,3.78-4.58,5-8.56,4.07-2.31-.53-4.07-3.28-4.27-6.8-.09-1.49.08-3-.05-4.48a32.73,32.73,0,0,0-.77-3.76c-6.83,2.15-11.25,6-13.21,12.55-1.11,3.7-4.21,5-7.05,2.74a6.35,6.35,0,0,1-2-4.11c-.39-4.8,1.89-8.68,5.07-12S227,256,230.24,253c5.46-5,7.89-11.23,7.88-18.64,0-17.2.17-34.4.22-51.6a22.41,22.41,0,0,0-.56-6.67,15.65,15.65,0,0,0-3.53-6.29c-3.21-3.16-7.87-1.83-9,2.55a37,37,0,0,0-1,9.23c-.06,18.19.06,36.38,0,54.58,0,9.84-3.66,17.91-12,23.56a18.65,18.65,0,0,1-3.29,1.71c-6.68,2.84-10.6,1.11-13.15-5.68a72.52,72.52,0,0,0-2.83-6.88,18.5,18.5,0,0,0-28.26-6.16,11,11,0,0,0-2.71,3c-.9,1.6-1,3.31.55,4.76s2.89.94,4.46.18c3-1.44,5.92-3.18,9.08-4,3.6-1,6.07,1.07,6.63,4.7.34,2.15-.78,4.49-2.83,4.52-6.32.09-11.53,3.78-17.49,4.94a24.35,24.35,0,0,1-4.79.61c-7.25,0-11.12-5.74-8.6-12.51,3.84-10.32,11.61-16.11,21.86-19.08a23.14,23.14,0,0,0,5.55-2c2.6-1.56,2.5-3.79.08-5.7s-5-1.53-7.38-.21c-6.7,3.8-13.31,7.77-19.89,11.78a6,6,0,0,0-2,2.61c-1.63,3.5-3.14,7.05-4.68,10.59-3.34,7.65-9.41,11.47-17.46,12.89-11.7,2.08-21.75-1.75-31.13-8.18-5.14-3.52-6.26-3.4-10.6,1.34A34.86,34.86,0,0,1,78,258c-9.54,6.68-20,1.15-23.89-8a30,30,0,0,1-2.33-11.22c-.21-19.69-.07-39.38,0-59.08,0-4.78-1.41-6.65-5.32-6.88-5.22-.32-7.85,1.63-8.35,6.25a62.93,62.93,0,0,0-.51,6.7c0,15.71,0,31.41.12,47.11.07,9,4.66,16,10.74,22.17,3,3,6.42,5.51,9.51,8.4a9.91,9.91,0,0,1,3.37,9.06c-.4,2.69-1.94,4.46-4.41,4.9a4,4,0,0,1-4.72-3.34c-1.3-5.65-6-8-9.9-11.18-2.43-1.95-4.66-1-5,2.07a64.09,64.09,0,0,0,0,7.84c.06,2.38-.3,5.1-2.63,5.66s-5.11,0-7.53-.73c-.8-.23-1.36-2.22-1.57-3.49-.43-2.57-.33-5.23-.86-7.77-.68-3.27-2.06-4.22-5.35-3.71-7.14,1.1-8.3,2.81-9.18,8.74-.09.61-.1,1.24-.15,1.86-.46,5.42-4.23,7.24-8.79,4.27-.39-.26-.82-.48-1.23-.72Z"/><path class="a" d="M192,2.64a46.06,46.06,0,0,1,8.33,3.19c9.52,5,10.91,14.73,8.08,23.49A19.77,19.77,0,0,1,200.57,40c-2.36,1.59-4.47,3.55-6.75,5.27-3,2.23-6.12,1.19-7.14-2.49-.8-2.86-2.5-4.54-5.06-6a63.2,63.2,0,0,1-9.48-7.08c-2.44-2.13-3.21-2.32-6.18-.88a35.43,35.43,0,0,1-7.31,2.62c-2,.47-3.32,1.19-3.25,3.33s1.74,2.87,3.61,2.94c2.61.09,5.23,0,7.85.06a19,19,0,0,1,4.07.38c6.76,1.67,9.93,5.69,10,12.85.13,8.47,0,17,.23,25.43.19,6.58.46,13.24,2.92,19.46a70.06,70.06,0,0,0,5.48,11c3.08,5,3.1,10.19,1.61,15.46-.77,2.7-2.35,5.19-3.63,7.74-1.17,2.31-3.13,3-5.63,2.61a17.7,17.7,0,0,1-9.54-4.59c-1.53-1.46-3.08-2.91-4.52-4.46s-3.45-1.86-5-.58c-9.5,7.71-20.55,7.37-31.64,5.88a32.65,32.65,0,0,1-19.69-9.73,18.11,18.11,0,0,1-5.17-11.67,15.24,15.24,0,0,0-.31-3c-.68-2.53-2.59-3.4-4.87-2.09-3.35,1.92-4.52,5.1-4.7,8.79-.16,3.51.81,6.93,4.27,7.92,6.24,1.78,10.6,6.15,15.65,9.65,6.45,4.47,14,6.18,21.74,6.74,8.41.6,16.57-.45,24.21-4.39a6.53,6.53,0,0,1,6.78.13c2.83,1.8,5.64,3.65,8.46,5.48,1.93,1.25,2.34,3,1,4.8a135.91,135.91,0,0,1-9.52,12.41c-4.1,4.46-7.48,4.25-11.9.15-.54-.51-1.11-1-1.65-1.51-1.64-1.59-3.21-1.72-4.75.14-.4.48-.86.91-1.29,1.36-3.64,3.81-6.31,4-10.37.86-.49-.38-1-.74-1.48-1.13-5-3.86-5.76-3.77-10,1.11-2.13,2.49-4.74,2.89-7.67,1.11-1.59-1-3.11-2.07-4.71-3-2.4-1.45-4.93-1.45-6.91.5-6.06,6-10.89,12.72-11.31,21.61s8.54,18.52,17.31,18.75c5.08.13,10.18-.33,15.27-.52.62,0,1.25-.09,1.87-.11,2.21-.07,4,.69,4.57,3a3.72,3.72,0,0,1-2.6,4.75c-2.91,1-5.94,2.52-8.89,2.43a83.76,83.76,0,0,1-18.45-2.08C91,197.4,86.11,184.94,87.82,171.44a41.85,41.85,0,0,1,6.46-17,15.11,15.11,0,0,0,1.14-3.69c-1.51-.23-3.11-.88-4.52-.59A9.49,9.49,0,0,0,84,156c-1.31,3.07-2.77,6.24-3.18,9.49-.67,5.41-1.32,11-.62,16.37a27.49,27.49,0,0,0,16.23,22.28A57.11,57.11,0,0,0,130.28,209c4-.67,8-1.64,11.1-4.79,7.69-7.77,2-14.81-4.65-17-2.17-.7-4.66-.56-7-.52-4.23.08-8.45.57-12.67.55a12.91,12.91,0,0,1-11.88-8.76c-1-2.85-.07-5.52,1.23-7.88a60.62,60.62,0,0,1,5-6.92c1.57-2.11,3.63-2.4,6-1.6a7.83,7.83,0,0,1,2.07.81c3,2.15,5.63,1.59,8.33-.8,2.91-2.59,6.22-3.57,9.88-1.24.72.47,1.63.64,2.34,1.12a8.25,8.25,0,0,0,9.42.21c3.09-1.79,5.89-1.14,8.71.7,8.25,5.38,12.92,13.26,15.89,22.37.54,1.66,1,3.34,1.69,4.93,1,2.27,2.93,3.39,4.63,2.81,1.86-.64,2.37-2.32,1.48-5-2.41-7.32-4.69-14.69-9.59-20.88a5.52,5.52,0,0,1,.09-7.51c4.13-5.14,8.3-10.25,12.37-15.44a22.38,22.38,0,0,0,2.85-4.67c1.27-2.85,3.49-4.7,6.4-3.84,4.46,1.31,6.72-1.2,9.07-4.07,1.31-1.6,1.54-4.6,4.66-3.94,2,.42,4.4,4.48,4.64,7.2a8.55,8.55,0,0,1-2.5,7.12,87.72,87.72,0,0,1-6.52,6.69c-3,2.44-3.58,5.48-3.37,9,.2,3.35.41,6.71.45,10.07,0,3-1.11,4.34-3.63,4.86s-4.08-1-4.92-3a17,17,0,0,1-.65-4.33c-.28-2.32-.22-4.73-.87-6.94s-2.24-2.68-4.47-1.76c-3.79,1.55-5.45,5.16-3.59,8.85a133.51,133.51,0,0,0,7.43,12.93c2.21,3.38,4.45,3.69,8,1.81,3.75-2,5.94-1,6.56,3.17.71,4.67-.11,8.87-3.62,12.39-2.64,2.64-5.13,5.44-7.5,8.32a8,8,0,0,1-7.16,3.3A93.13,93.13,0,0,1,172,205c-4-1-6-4.4-6.52-8.35-1.25-8.83-6.29-15.22-12.87-20.7-4.17-3.48-9.16-4.29-14.33-4.27-4.48,0-9,.22-13.44.55a14.86,14.86,0,0,0-5.31,1.35c-2.25,1.11-2.1,3.53.22,4.51a13.2,13.2,0,0,0,4.35.8c5.83.3,11.71.19,17.51.81,9,1,16.47,8.13,17.41,16.86.69,6.43-1.32,11.95-7.11,15.76-8.18,5.39-17.19,7.43-26.85,7.78a88.23,88.23,0,0,1-31.15-4.43,34.67,34.67,0,0,1-17.8-12.87c-3.29-4.6-4.21-10.28-5.22-15.81-2.24-12.31-1.41-24.25,3.48-35.89,2.1-5,1.69-5.48-2.73-8.51-3.81-2.6-7.82-5.16-8.6-10.22-.42-2.76-1.08-5.69.83-8.28,3.56-4.8,14-3.48,15.44,2,1.08,4.15,3.25,7.79,7.4,9.28a97.36,97.36,0,0,0,14,3.67c1,.2,2.86-1,3.37-2.05.35-.71-.64-2.68-1.57-3.31a35.91,35.91,0,0,0-6.93-3.54c-7.13-2.78-10.14-7.6-8.42-15.16,1.92-8.47,4.46-16.79,6.63-25.21a29.9,29.9,0,0,0,1.11-6.94c.14-8.47,0-16.95.12-25.42a49.33,49.33,0,0,1,1.11-9.61C97.64,41,102.64,37.38,110.45,37c2.49-.12,5,0,7.47-.25a22.45,22.45,0,0,0,3.91-1.11,4.31,4.31,0,0,0-4.64-2.54,26.85,26.85,0,0,1-12.7-1.94C98,28.51,91.87,33.45,91.22,41a9.55,9.55,0,0,1-1.4,4.39c-1,1.44-2.36,1.45-3.69-.08C82,40.55,77.68,35.86,73.48,31.1a14.84,14.84,0,0,1-2.91-16c2.33-6,6.74-10.19,13.32-11.36,6.9-1.24,13.3,3.46,13.39,9.59A7.27,7.27,0,0,1,92,20.56c-3.47.89-6.37-.57-8.06-4a3.74,3.74,0,0,0-.7-.75c-2.13,3.06-2,4.69.68,7,3.48,3,10.45,3.39,14.21.13,2.56-2.22,4.41-5.27,6.5-8,1-1.26,1.52-2.92,2.67-3.92a3.86,3.86,0,0,1,3.34-.41c.63.24,1,1.79,1,2.77.06,1.86-.31,3.73-.32,5.59,0,6,4.4,9.75,10.31,8.61a15.71,15.71,0,0,1,10.74,1.94c3,1.57,4.48,6.75,2.78,9.84-.86,1.55-1.79,2.61-3.65,2.72-4.34.27-8.68.51-13,1a18,18,0,0,0-6.41,1.5c-1.13.57-2,2.48-2.16,3.89-.27,2,1.9,2.3,3.17,2.4a41.71,41.71,0,0,0,10.05,0,100.12,100.12,0,0,1,31.62-.12,76.69,76.69,0,0,0,10.07.33c2.19,0,3.59-1,3.7-3.28.11-2.16-1.23-3.28-3.93-3.43-4.46-.23-8.93-.3-13.36-.78a9.69,9.69,0,0,1-7-4.57,7.1,7.1,0,0,1,4.36-11.23c2.31-.48,4.66-.79,7-1.35,4.51-1.09,6.25-4.29,4.87-8.73-.45-1.42-1-2.82-1.37-4.25-.93-3.39.78-5.14,4.32-4.72a7.87,7.87,0,0,1,6.16,4.25c2.4,4.05,5,8,7.48,12,3.29,5.29,14.37,5.88,18.79,2.85A12.55,12.55,0,0,0,201,19.76a4.12,4.12,0,0,0-2.76-5.06c-2-.53-3.36.35-4.13,2.65-2.19,6.55-7.63,7.71-12.42,2.65-4.5-4.75-5.22-9.4-1.53-13.64a13,13,0,0,1,6.33-3.48A17.26,17.26,0,0,1,192,2.64ZM140.17,76.48c-7.39.07-10.43,1.59-14.83,7.49-3,4-3.45,8.24-1.77,13,2.43,6.94,11.59,10.84,17.68,10.8,9.82-.06,15.69-6.14,15.1-15.88C155.75,82,149.88,76.39,140.17,76.48ZM183.45,115c-.27-9.3-7.85-14.18-16-10a84,84,0,0,0-9.45,6c-8.69,6-18,7.67-27.95,3.86-3.35-1.28-6.49-3.13-9.86-4.36a4.51,4.51,0,0,0-3.92.59c-1.18,1.17-.38,2.79.85,3.9a11.05,11.05,0,0,0,1.74,1.39c11.32,6.46,23.15,9.27,35.56,3.57,4.57-2.1,8.65-5.29,12.84-8.16,5.51-3.78,8.86-2.32,9.52,4.27a7.3,7.3,0,0,0,.73,3.22,3.74,3.74,0,0,0,2.67,1.59,3.52,3.52,0,0,0,2.33-1.88A17.3,17.3,0,0,0,183.45,115Z"/><path class="a" d="M141.13,102.65c-5.45.24-10.75-3.75-11-8.27a11.19,11.19,0,0,1,10.09-12c4.95-.39,9.71,3.91,10.09,11.43C150.59,99,147,102.38,141.13,102.65Z"/></svg>