<svg xmlns="http://www.w3.org/2000/svg" viewBox="0 0 275.52 282.11"><path d="M69.4,264.64c-.77-1.75-1-3.87-3.06-6.45-3.46-4.29-7.46-4.53-13.53-6.9C38.9,245.85,33,236.45,36.38,221.69c3.75-16.52,8.71-32.76,12.94-49.18A59.19,59.19,0,0,0,51.49,159c.26-16.53-.08-33.07.22-49.6A96.85,96.85,0,0,1,53.88,90.6c2.88-13.17,12.65-20.31,27.9-21,4.85-.23,9.74-.08,14.57-.5,2.42-.21,4.76-1.31,7.62-2.15-2.41-4.47-5.56-5.23-9-5a52.61,52.61,0,0,1-24.78-3.78C57.41,53,45.5,62.62,44.24,77.41A18.66,18.66,0,0,1,41.52,86c-1.9,2.82-4.62,2.84-7.21-.14C26.18,76.48,17.82,67.32,9.62,58S-.4,38,3.94,26.76C8.5,15,17.09,6.88,29.93,4.58c13.47-2.41,26,6.76,26.15,18.72A14.2,14.2,0,0,1,45.76,37.46C39,39.21,33.33,36.36,30,29.61a6.85,6.85,0,0,0-1.36-1.46c-4.18,6-3.83,9.15,1.31,13.61,6.8,5.89,20.4,6.61,27.74.25,5-4.32,8.6-10.28,12.67-15.62,1.88-2.46,3-5.7,5.23-7.65,1.44-1.25,4.65-1.54,6.51-.81,1.22.47,1.94,3.5,2,5.41.11,3.63-.62,7.27-.63,10.91,0,11.76,8.57,19,20.11,16.8,7.56-1.46,14.29.24,20.95,3.78C130.35,57.89,133.31,68,130,74c-1.67,3-3.49,5.09-7.12,5.31-8.46.53-16.93,1-25.35,1.87-4.27.45-8.81,1-12.51,2.93-2.19,1.12-3.85,4.85-4.21,7.6-.53,4,3.7,4.49,6.19,4.68,6.51.5,13.24,1,19.62,0a195.55,195.55,0,0,1,61.7-.24c6.44,1,13.09.56,19.64.66,4.27.06,7-1.9,7.23-6.41.2-4.22-2.4-6.4-7.69-6.69-8.69-.46-17.41-.6-26.05-1.52-5.77-.62-10.28-4.09-13.59-8.92-5.94-8.67-1.63-19.81,8.5-21.92,4.52-.94,9.11-1.54,13.58-2.63,8.81-2.14,12.21-8.37,9.5-17-.86-2.77-1.91-5.48-2.67-8.28-1.81-6.62,1.53-10,8.44-9.2,5.59.67,9.22,3.54,12,8.28,4.68,7.91,9.73,15.59,14.59,23.38,6.43,10.31,28.05,11.47,36.67,5.55,5.61-3.85,8.58-9.21,10-15.48,1.07-4.71-1.53-8.86-5.37-9.88s-6.58.68-8.08,5.18c-4.26,12.78-14.87,15-24.23,5.17-8.78-9.27-10.18-18.36-3-26.62,3-3.42,7.75-5.52,12.37-6.8,5.12-.73,7-.91,10.65-.45a89.12,89.12,0,0,1,16.27,6.22c18.57,9.73,21.3,28.74,15.77,45.82A38.61,38.61,0,0,1,257.63,75.3c-4.61,3.11-8.73,6.92-13.18,10.28-5.79,4.36-11.93,2.33-13.93-4.84-1.55-5.58-4.88-8.88-9.87-11.79a123.35,123.35,0,0,1-18.5-13.82c-4.76-4.15-6.27-4.53-12.06-1.71a70.27,70.27,0,0,1-14.28,5.11c-3.84.91-6.46,2.32-6.33,6.5.13,4.4,3.39,5.59,7,5.72,5.1.19,10.22,0,15.32.13a36.26,36.26,0,0,1,7.95.73c13.19,3.27,19.37,11.11,19.58,25.08.25,16.54,0,33.09.46,49.62.37,12.84.89,25.84,5.69,38a137,137,0,0,0,10.7,21.48c6,9.73,6,19.87,3.14,30.16-1.49,5.28-4.58,10.13-7.08,15.1-2.28,4.52-6.12,5.94-11,5.1-7.06-1.23-13.4-3.94-18.62-9-3-2.86-6-5.69-8.82-8.72-3-3.28-6.72-3.62-9.8-1.12-18.56,15-40.12,14.38-61.74,11.47-14.65-2-27.82-8-38.44-19A35.31,35.31,0,0,1,73.79,207a32.55,32.55,0,0,0-.6-5.78c-1.33-4.94-5.06-6.63-9.52-4.07-6.53,3.74-8.82,10-9.15,17.14-.32,6.87,1.56,13.53,8.32,15.46,12.17,3.48,20.68,12,30.55,18.84,12.58,8.72,27.3,12.06,42.4,13.14,16.42,1.18,32.35-.86,47.26-8.55,4.25-2.2,8.9-2.5,13.23.25,5.53,3.52,11,7.12,16.5,10.69a6.91,6.91,0,0,1,3.46,4.68,6.78,6.78,0,0,1-1.41,4.68c-4.27,6.17-18.4,6.32-18.4,6.32-14.21.14-21.33-.73-39.34-1-11.61-.18-25.38-1.64-54.42-2.65C92.47,275.82,73.35,273.71,69.4,264.64Zm70.37-118c-14.43.14-20.35,3.1-28.94,14.61-5.82,7.8-6.73,16.09-3.47,25.37,4.76,13.54,22.63,21.15,34.51,21.07,19.16-.12,30.62-12,29.47-31C170.16,157.3,158.72,146.41,139.77,146.59Zm84.44,75.23c-.52-18.15-15.3-27.67-31.2-19.57-6.45,3.29-12.45,7.52-18.43,11.66-17,11.73-35.07,15-54.55,7.53-6.54-2.5-12.67-6.1-19.24-8.5-2.22-.8-6.14-.37-7.65,1.14-2.29,2.29-.75,5.45,1.66,7.61a20.85,20.85,0,0,0,3.4,2.71c22.1,12.62,45.16,18.1,69.38,7,8.92-4.1,16.89-10.32,25.06-15.92,10.76-7.38,17.29-4.54,18.59,8.32.22,2.16.29,4.63,1.42,6.29s3.46,3.17,5.21,3.11c1.6-.06,3.73-2,4.54-3.68C223.53,227.2,223.66,224.4,224.21,221.82Z"/><path d="M141.64,197.65c-10.64.48-21-7.31-21.43-16.14-.64-12.41,8.19-22.53,19.68-23.44,9.67-.77,19,7.62,19.69,22.29C160.09,190.46,153.07,197.13,141.64,197.65Z"/></svg>